<svg height="2366" viewBox="0 0 1975 2366" xmlns:xlink="http://www.w3.org/1999/xlink" width="1975" xmlns="http://www.w3.org/2000/svg" xmlns:ev="http://www.w3.org/2001/xml-events"><style type="text/css"><![CDATA[
.st1 {fill:#6d6271;font-family:Arial;font-size:9pt}
.st4 {fill:#6d6271;font-family:宋体;font-size:9pt}
.st3 {fill:#ffffff;font-family:Arial;font-size:10pt}
.st2 {fill:#ffffff;font-family:Arial;font-size:12pt}
.st5 {fill:#ffffff;font-family:宋体;font-size:10pt}
]]></style><defs/><g id="page1" transform="translate(5,5)"><rect height="2356" width="1965" x="0" y="0" fill="#fffdfb" stroke="#808080"/><path id="shape1" stroke="#6d6271" fill="none" transform="translate(932,1347.73)" d="M0,0C0,-206.3,57.2,-458.5,104,-458.5"/><path id="shape2" stroke="#6d6271" fill="none" transform="translate(932,1347.73)" d="M0,0C0,27.7,57.2,61.5,104,61.5"/><path id="shape3" stroke="#6d6271" fill="none" transform="translate(932,1347.73)" d="M0,0C0,241,57.2,535.5,104,535.5"/><path id="shape4" stroke="#6d6271" fill="none" transform="translate(932,1347.73)" d="M0,0C0,385.4,57.2,856.5,104,856.5"/><path id="shape5" stroke="#6d6271" fill="none" transform="translate(1124,1105.23)" d="M0,0L11.2,0L11.2,-21C11.2,-25.8,14.4,-29,19.2,-29L28,-29"/><path id="shape6" stroke="#6d6271" fill="none" transform="translate(718,1119.73)" d="M0,0L-11.2,0L-11.2,201C-11.2,205.8,-14.4,209,-19.2,209L-28,209"/><path id="shape7" stroke="#6d6271" fill="none" transform="translate(718,1119.73)" d="M0,0L-11.2,0L-11.2,327C-11.2,331.8,-14.4,335,-19.2,335L-28,335"/><path id="shape8" stroke="#6d6271" fill="none" transform="translate(594,1454.73)" d="M0,0L-11.2,0L-11.2,-64C-11.2,-68.8,-14.4,-72,-19.2,-72L-28,-72"/><path id="shape9" stroke="#6d6271" fill="none" transform="translate(594,1454.73)" d="M0,0L-11.2,0L-11.2,-28C-11.2,-32.8,-14.4,-36,-19.2,-36L-28,-36"/><path id="shape10" stroke="#6d6271" fill="none" transform="translate(594,1454.73)" d="M0,0L-11.2,0C-11.2,0,-11.2,0,-11.2,0L-28,0"/><path id="shape11" stroke="#6d6271" fill="none" transform="translate(594,1454.73)" d="M0,0L-11.2,0L-11.2,28C-11.2,32.8,-14.4,36,-19.2,36L-28,36"/><path id="shape12" stroke="#6d6271" fill="none" transform="translate(594,1454.73)" d="M0,0L-11.2,0L-11.2,64C-11.2,68.8,-14.4,72,-19.2,72L-28,72"/><path id="shape13" stroke="#6d6271" fill="none" transform="translate(594,1328.73)" d="M0,0L-11.2,0L-11.2,-10C-11.2,-14.8,-14.4,-18,-19.2,-18L-28,-18"/><path id="shape14" stroke="#6d6271" fill="none" transform="translate(594,1328.73)" d="M0,0L-11.2,0L-11.2,10C-11.2,14.8,-14.4,18,-19.2,18L-28,18"/><path id="shape15" stroke="#6d6271" fill="none" transform="translate(582,1150.73)" d="M0,0L-11.2,0L-11.2,-120C-11.2,-124.8,-14.4,-128,-19.2,-128L-28,-128"/><path id="shape16" stroke="#6d6271" fill="none" transform="translate(582,1150.73)" d="M0,0L-11.2,0L-11.2,-84C-11.2,-88.8,-14.4,-92,-19.2,-92L-28,-92"/><path id="shape17" stroke="#6d6271" fill="none" transform="translate(582,1150.73)" d="M0,0L-11.2,0L-11.2,-48C-11.2,-52.8,-14.4,-56,-19.2,-56L-28,-56"/><path id="shape18" stroke="#6d6271" fill="none" transform="translate(582,1150.73)" d="M0,0L-11.2,0L-11.2,-12C-11.2,-16.8,-14.4,-20,-19.2,-20L-28,-20"/><path id="shape19" stroke="#6d6271" fill="none" transform="translate(582,1150.73)" d="M0,0L-11.2,0L-11.2,8C-11.2,12.8,-14.4,16,-19.2,16L-28,16"/><path id="shape20" stroke="#6d6271" fill="none" transform="translate(582,1150.73)" d="M0,0L-11.2,0L-11.2,44C-11.2,48.8,-14.4,52,-19.2,52L-28,52"/><path id="shape21" stroke="#6d6271" fill="none" transform="translate(582,1150.73)" d="M0,0L-11.2,0L-11.2,80C-11.2,84.8,-14.4,88,-19.2,88L-28,88"/><path id="shape22" stroke="#6d6271" fill="none" transform="translate(582,1150.73)" d="M0,0L-11.2,0L-11.2,116C-11.2,120.8,-14.4,124,-19.2,124L-28,124"/><path id="shape23" stroke="#6d6271" fill="none" transform="translate(582,916.73)" d="M0,0L-11.2,0L-11.2,-66C-11.2,-70.8,-14.4,-74,-19.2,-74L-28,-74"/><path id="shape24" stroke="#6d6271" fill="none" transform="translate(582,916.73)" d="M0,0L-11.2,0L-11.2,-30C-11.2,-34.8,-14.4,-38,-19.2,-38L-28,-38"/><path id="shape25" stroke="#6d6271" fill="none" transform="translate(582,916.73)" d="M0,0L-11.2,0C-11.2,-1.2,-12,-2,-13.2,-2L-28,-2"/><path id="shape26" stroke="#6d6271" fill="none" transform="translate(582,916.73)" d="M0,0L-11.2,0L-11.2,26C-11.2,30.8,-14.4,34,-19.2,34L-28,34"/><path id="shape27" stroke="#6d6271" fill="none" transform="translate(582,916.73)" d="M0,0L-11.2,0L-11.2,62C-11.2,66.8,-14.4,70,-19.2,70L-28,70"/><path id="shape28" stroke="#6d6271" fill="none" transform="translate(732,1685.73)" d="M0,0L-11.2,0L-11.2,7C-11.2,11.8,-14.4,15,-19.2,15L-28,15"/><path id="shape29" stroke="#6d6271" fill="none" transform="translate(732,1685.73)" d="M0,0L-11.2,0L-11.2,43C-11.2,47.8,-14.4,51,-19.2,51L-28,51"/><path id="shape30" stroke="#6d6271" fill="none" transform="translate(732,1685.73)" d="M0,0L-11.2,0L-11.2,79C-11.2,83.8,-14.4,87,-19.2,87L-28,87"/><path id="shape31" stroke="#6d6271" fill="none" transform="translate(732,1685.73)" d="M0,0L-11.2,0L-11.2,115C-11.2,119.8,-14.4,123,-19.2,123L-28,123"/><path id="shape32" stroke="#6d6271" fill="none" transform="translate(702,2007.73)" d="M0,0L-11.2,0L-11.2,47C-11.2,51.8,-14.4,55,-19.2,55L-28,55"/><path id="shape33" stroke="#6d6271" fill="none" transform="translate(702,2007.73)" d="M0,0L-11.2,0L-11.2,83C-11.2,87.8,-14.4,91,-19.2,91L-28,91"/><path id="shape34" stroke="#6d6271" fill="none" transform="translate(702,2007.73)" d="M0,0L-11.2,0L-11.2,119C-11.2,123.8,-14.4,127,-19.2,127L-28,127"/><path id="shape35" stroke="#6d6271" fill="none" transform="translate(702,2007.73)" d="M0,0L-11.2,0L-11.2,155C-11.2,159.8,-14.4,163,-19.2,163L-28,163"/><path id="shape36" stroke="#6d6271" fill="none" transform="translate(1110,889.23)" d="M0,0L11.2,0L11.2,81C11.2,85.8,14.4,89,19.2,89L28,89"/><path id="shape37" stroke="#6d6271" fill="none" transform="translate(1108,1409.23)" d="M0,0L11.2,0L11.2,-31C11.2,-35.8,14.4,-39,19.2,-39L28,-39"/><path id="shape38" stroke="#6d6271" fill="none" transform="translate(1108,1409.23)" d="M0,0L11.2,0C11.2,-1.8,12.4,-3,14.2,-3L28,-3"/><path id="shape39" stroke="#6d6271" fill="none" transform="translate(1108,1409.23)" d="M0,0L11.2,0L11.2,25C11.2,29.8,14.4,33,19.2,33L28,33"/><path id="shape40" stroke="#6d6271" fill="none" transform="translate(1108,1409.23)" d="M0,0L11.2,0L11.2,61C11.2,65.8,14.4,69,19.2,69L28,69"/><path id="shape41" stroke="#6d6271" fill="none" transform="translate(1108,1409.23)" d="M0,0L11.2,0L11.2,97C11.2,101.8,14.4,105,19.2,105L28,105"/><path id="shape42" stroke="#6d6271" fill="none" transform="translate(1108,1409.23)" d="M0,0L11.2,0L11.2,133C11.2,137.8,14.4,141,19.2,141L28,141"/><path id="shape43" stroke="#6d6271" fill="none" transform="translate(1108,1409.23)" d="M0,0L11.2,0L11.2,169C11.2,173.8,14.4,177,19.2,177L28,177"/><path id="shape44" stroke="#6d6271" fill="none" transform="translate(932,1347.73)" d="M0,0C0,-384.5,57.2,-854.5,104,-854.5"/><g transform="translate(1152,1054.23)"><g id="shape45"><path stroke="#6d6271" fill="none" d="M0,22L82,22"/></g><text class="st1"><tspan x="5" y="17">Tornado入门</tspan></text></g><path id="shape46" stroke="#6d6271" fill="none" transform="translate(1124,1105.23)" d="M0,0L11.2,0L11.2,3C11.2,7.8,14.4,11,19.2,11L28,11"/><g transform="translate(1152,1094.23)"><g id="shape47"><path stroke="#6d6271" fill="none" d="M0,22L48,22"/></g><text class="st1"><tspan x="5" y="17">异步化</tspan></text></g><path id="shape48" stroke="#6d6271" fill="none" transform="translate(1124,1105.23)" d="M0,0L11.2,0L11.2,43C11.2,47.8,14.4,51,19.2,51L28,51"/><g transform="translate(1152,1134.23)"><g id="shape49"><path stroke="#6d6271" fill="none" d="M0,22L108,22"/></g><text class="st1"><tspan x="5" y="17">websocket的应用</tspan></text></g><path id="shape50" stroke="#6d6271" fill="none" transform="translate(1124,1105.23)" d="M0,0L11.2,0L11.2,83C11.2,87.8,14.4,91,19.2,91L28,91"/><g transform="translate(1152,1174.23)"><g id="shape51"><path stroke="#6d6271" fill="none" d="M0,22L60,22"/></g><text class="st1"><tspan x="5" y="17">项目实战</tspan></text></g><path id="shape52" stroke="#6d6271" fill="none" transform="translate(1110,889.23)" d="M0,0L11.2,0L11.2,-19C11.2,-23.8,14.4,-27,19.2,-27L28,-27"/><g transform="translate(1138,840.23)"><g id="shape53"><path stroke="#6d6271" fill="none" d="M0,22L72,22"/></g><text class="st1"><tspan x="5" y="17">模板的使用</tspan></text></g><path id="shape54" stroke="#6d6271" fill="none" transform="translate(1110,889.23)" d="M0,0L11.2,0L11.2,5C11.2,9.8,14.4,13,19.2,13L28,13"/><g transform="translate(1138,880.23)"><g id="shape55"><path stroke="#6d6271" fill="none" d="M0,22L72,22"/></g><text class="st1"><tspan x="5" y="17">表单的处理</tspan></text></g><path id="shape56" stroke="#6d6271" fill="none" transform="translate(1110,889.23)" d="M0,0L11.2,0L11.2,45C11.2,49.8,14.4,53,19.2,53L28,53"/><g transform="translate(1138,920.23)"><g id="shape57"><path stroke="#6d6271" fill="none" d="M0,22L72,22"/></g><text class="st1"><tspan x="5" y="17">数据库操作</tspan></text></g><path id="shape58" stroke="#6d6271" fill="none" transform="translate(932,1347.73)" d="M0,0C0,-109.1,57.2,-242.5,104,-242.5"/><path id="shape59" stroke="#6d6271" fill="none" transform="translate(932,1347.73)" d="M0,0C0,400.5,-57.2,890,-104,890"/><path id="shape60" stroke="#6d6271" fill="none" transform="translate(932,1347.73)" d="M0,0C0,297,-57.2,660,-104,660"/><path id="shape61" stroke="#6d6271" fill="none" transform="translate(932,1347.73)" d="M0,0C0,152.1,-57.2,338,-104,338"/><path id="shape62" stroke="#6d6271" fill="none" transform="translate(932,1347.73)" d="M0,0C0,-102.6,-57.2,-228,-104,-228"/><path id="shape63" stroke="#6d6271" fill="none" transform="translate(932,1347.73)" d="M0,0C0,-400.5,-57.2,-890,-104,-890"/><path id="shape64" stroke="#6d6271" fill="none" transform="translate(1110,889.23)" d="M0,0L11.2,0L11.2,-59C11.2,-63.8,14.4,-67,19.2,-67L28,-67"/><path id="shape65" stroke="#6d6271" fill="none" transform="translate(1108,1409.23)" d="M0,0L11.2,0L11.2,-147C11.2,-151.8,14.4,-155,19.2,-155L28,-155"/><path id="shape66" stroke="#6d6271" fill="none" transform="translate(1108,1409.23)" d="M0,0L11.2,0L11.2,-107C11.2,-111.8,14.4,-115,19.2,-115L28,-115"/><g transform="translate(1136,1272.23)"><g id="shape67"><path stroke="#6d6271" fill="none" d="M0,22L96,22"/></g><text class="st1"><tspan x="5" y="17">数据采集和分析</tspan></text></g><path id="shape68" stroke="#6d6271" fill="none" transform="translate(1108,1409.23)" d="M0,0L11.2,0L11.2,-67C11.2,-71.8,14.4,-75,19.2,-75L28,-75"/><path id="shape69" stroke="#6d6271" fill="none" transform="translate(708,2237.73)" d="M0,0L-11.2,0L-11.2,-2C-11.2,-6.2,-14,-9,-18.2,-9L-28,-9"/><path id="shape70" stroke="#6d6271" fill="none" transform="translate(708,2237.73)" d="M0,0L-11.2,0L-11.2,23C-11.2,27.8,-14.4,31,-19.2,31L-28,31"/><path id="shape71" stroke="#6d6271" fill="none" transform="translate(702,2007.73)" d="M0,0L-11.2,0L-11.2,-133C-11.2,-137.8,-14.4,-141,-19.2,-141L-28,-141"/><path id="shape72" stroke="#6d6271" fill="none" transform="translate(702,2007.73)" d="M0,0L-11.2,0L-11.2,-93C-11.2,-97.8,-14.4,-101,-19.2,-101L-28,-101"/><path id="shape73" stroke="#6d6271" fill="none" transform="translate(702,2007.73)" d="M0,0L-11.2,0L-11.2,-53C-11.2,-57.8,-14.4,-61,-19.2,-61L-28,-61"/><path id="shape74" stroke="#6d6271" fill="none" transform="translate(702,2007.73)" d="M0,0L-11.2,0L-11.2,-13C-11.2,-17.8,-14.4,-21,-19.2,-21L-28,-21"/><path id="shape75" stroke="#6d6271" fill="none" transform="translate(702,2007.73)" d="M0,0L-11.2,0L-11.2,11C-11.2,15.8,-14.4,19,-19.2,19L-28,19"/><path id="shape76" stroke="#6d6271" fill="none" transform="translate(732,1685.73)" d="M0,0L-11.2,0L-11.2,-93C-11.2,-97.8,-14.4,-101,-19.2,-101L-28,-101"/><path id="shape77" stroke="#6d6271" fill="none" transform="translate(732,1685.73)" d="M0,0L-11.2,0L-11.2,-53C-11.2,-57.8,-14.4,-61,-19.2,-61L-28,-61"/><path id="shape78" stroke="#6d6271" fill="none" transform="translate(732,1685.73)" d="M0,0L-11.2,0L-11.2,-13C-11.2,-17.8,-14.4,-21,-19.2,-21L-28,-21"/><path id="shape79" stroke="#6d6271" fill="none" transform="translate(718,1119.73)" d="M0,0L-11.2,0L-11.2,-305C-11.2,-309.8,-14.4,-313,-19.2,-313L-28,-313"/><path id="shape80" stroke="#6d6271" fill="none" transform="translate(718,1119.73)" d="M0,0L-11.2,0L-11.2,-195C-11.2,-199.8,-14.4,-203,-19.2,-203L-28,-203"/><path id="shape81" stroke="#6d6271" fill="none" transform="translate(718,1119.73)" d="M0,0L-11.2,0L-11.2,23C-11.2,27.8,-14.4,31,-19.2,31L-28,31"/><path id="shape82" stroke="#6d6271" fill="none" transform="translate(718,457.73)" d="M0,0L-11.2,0L-11.2,-261C-11.2,-265.8,-14.4,-269,-19.2,-269L-28,-269"/><path id="shape83" stroke="#6d6271" fill="none" transform="translate(718,457.73)" d="M0,0L-11.2,0L-11.2,-221C-11.2,-225.8,-14.4,-229,-19.2,-229L-28,-229"/><path id="shape84" stroke="#6d6271" fill="none" transform="translate(718,457.73)" d="M0,0L-11.2,0L-11.2,-181C-11.2,-185.8,-14.4,-189,-19.2,-189L-28,-189"/><path id="shape85" stroke="#6d6271" fill="none" transform="translate(718,457.73)" d="M0,0L-11.2,0L-11.2,-141C-11.2,-145.8,-14.4,-149,-19.2,-149L-28,-149"/><path id="shape86" stroke="#6d6271" fill="none" transform="translate(718,457.73)" d="M0,0L-11.2,0L-11.2,-101C-11.2,-105.8,-14.4,-109,-19.2,-109L-28,-109"/><path id="shape87" stroke="#6d6271" fill="none" transform="translate(1124,1105.23)" d="M0,0L11.2,0L11.2,-61C11.2,-65.8,14.4,-69,19.2,-69L28,-69"/><path id="shape88" stroke="#6d6271" fill="none" transform="translate(718,457.73)" d="M0,0L-11.2,0L-11.2,-61C-11.2,-65.8,-14.4,-69,-19.2,-69L-28,-69"/><path id="shape89" stroke="#6d6271" fill="none" transform="translate(718,457.73)" d="M0,0L-11.2,0L-11.2,-25C-11.2,-29.8,-14.4,-33,-19.2,-33L-28,-33"/><path id="shape90" stroke="#6d6271" fill="none" transform="translate(718,457.73)" d="M0,0L-11.2,0C-11.2,1.8,-12.4,3,-14.2,3L-28,3"/><path id="shape91" stroke="#6d6271" fill="none" transform="translate(718,457.73)" d="M0,0L-11.2,0L-11.2,31C-11.2,35.8,-14.4,39,-19.2,39L-28,39"/><path id="shape92" stroke="#6d6271" fill="none" transform="translate(718,457.73)" d="M0,0L-11.2,0L-11.2,67C-11.2,71.8,-14.4,75,-19.2,75L-28,75"/><path id="shape93" stroke="#6d6271" fill="none" transform="translate(718,457.73)" d="M0,0L-11.2,0L-11.2,103C-11.2,107.8,-14.4,111,-19.2,111L-28,111"/><path id="shape94" stroke="#6d6271" fill="none" transform="translate(718,457.73)" d="M0,0L-11.2,0L-11.2,139C-11.2,143.8,-14.4,147,-19.2,147L-28,147"/><path id="shape95" stroke="#6d6271" fill="none" transform="translate(718,457.73)" d="M0,0L-11.2,0L-11.2,175C-11.2,179.8,-14.4,183,-19.2,183L-28,183"/><path id="shape96" stroke="#6d6271" fill="none" transform="translate(718,457.73)" d="M0,0L-11.2,0L-11.2,211C-11.2,215.8,-14.4,219,-19.2,219L-28,219"/><path id="shape97" stroke="#6d6271" fill="none" transform="translate(718,457.73)" d="M0,0L-11.2,0L-11.2,247C-11.2,251.8,-14.4,255,-19.2,255L-28,255"/><path id="shape98" stroke="#6d6271" fill="none" transform="translate(718,457.73)" d="M0,0L-11.2,0L-11.2,283C-11.2,287.8,-14.4,291,-19.2,291L-28,291"/><g transform="translate(884,1316.73)"><g id="shape99"><path fill="#9d5b8b" stroke="#9d5b8b" d="M11.2,0L84.8,0C91,0,96,5,96,11.2L96,50.8C96,57,91,62,84.8,62L11.2,62C5,62,0,57,0,50.8L0,11.2C0,5,5,0,11.2,0z"/></g><text class="st2"><tspan x="26" y="26.5">Python</tspan><tspan x="12" y="46.5">100天练习</tspan></text></g><g transform="translate(1036,863.23)"><g id="shape100"><path fill="#f08300" stroke="#f08300" d="M9.4,0L64.6,0C69.8,0,74,4.2,74,9.4L74,42.6C74,47.8,69.8,52,64.6,52L9.4,52C4.2,52,0,47.8,0,42.6L0,9.4C0,4.2,4.2,0,9.4,0z"/></g><text class="st3"><tspan x="12" y="21">Day56-60</tspan><tspan x="10" y="39">Flask入门</tspan></text></g><g transform="translate(1036,1383.23)"><g id="shape101"><path fill="#fdb933" stroke="#fdb933" d="M9.4,0L62.6,0C67.8,0,72,4.2,72,9.4L72,42.6C72,47.8,67.8,52,62.6,52L9.4,52C4.2,52,0,47.8,0,42.6L0,9.4C0,4.2,4.2,0,9.4,0z"/></g><text class="st3"><tspan x="10" y="21">Day66-75</tspan><tspan x="12" y="39">爬虫开发</tspan></text></g><g transform="translate(708,2211.73)"><g id="shape102"><path fill="#e6609d" stroke="#e6609d" d="M9.4,0L110.6,0C115.8,0,120,4.2,120,9.4L120,42.6C120,47.8,115.8,52,110.6,52L9.4,52C4.2,52,0,47.8,0,42.6L0,9.4C0,4.2,4.2,0,9.4,0z"/></g><text class="st3"><tspan x="35" y="21">Day36-40</tspan><tspan x="10" y="39">数据库基础和进阶</tspan></text></g><g transform="translate(702,1981.73)"><g id="shape103"><path fill="#e85464" stroke="#e85464" d="M9.4,0L116.6,0C121.8,0,126,4.2,126,9.4L126,42.6C126,47.8,121.8,52,116.6,52L9.4,52C4.2,52,0,47.8,0,42.6L0,9.4C0,4.2,4.2,0,9.4,0z"/></g><text class="st3"><tspan x="37" y="21">Day31-35</tspan><tspan x="10" y="39">玩转Linux操作系统</tspan></text></g><g transform="translate(1036,1079.23)"><g id="shape104"><path fill="#f1a500" stroke="#f1a500" d="M9.4,0L78.6,0C83.8,0,88,4.2,88,9.4L88,42.6C88,47.8,83.8,52,78.6,52L9.4,52C4.2,52,0,47.8,0,42.6L0,9.4C0,4.2,4.2,0,9.4,0z"/></g><text class="st3"><tspan x="18" y="21">Day61-65</tspan><tspan x="10" y="39">实战Tornado</tspan></text></g><g transform="translate(732,1659.73)"><g id="shape105"><path fill="#c85179" stroke="#c85179" d="M9.4,0L86.6,0C91.8,0,96,4.2,96,9.4L96,42.6C96,47.8,91.8,52,86.6,52L9.4,52C4.2,52,0,47.8,0,42.6L0,9.4C0,4.2,4.2,0,9.4,0z"/></g><text class="st3"><tspan x="22" y="21">Day21-30</tspan><tspan x="10" y="39">Web前端入门</tspan></text></g><g transform="translate(718,1093.73)"><g id="shape106"><path fill="#d7091d" stroke="#d7091d" d="M9.4,0L100.6,0C105.8,0,110,4.2,110,9.4L110,42.6C110,47.8,105.8,52,100.6,52L9.4,52C4.2,52,0,47.8,0,42.6L0,9.4C0,4.2,4.2,0,9.4,0z"/></g><text class="st3"><tspan x="29" y="21">Day16-20</tspan><tspan x="10" y="39">Python语言进阶</tspan></text></g><g transform="translate(718,431.73)"><g id="shape107"><path fill="#b60717" stroke="#b60717" d="M9.4,0L100.6,0C105.8,0,110,4.2,110,9.4L110,42.6C110,47.8,105.8,52,100.6,52L9.4,52C4.2,52,0,47.8,0,42.6L0,9.4C0,4.2,4.2,0,9.4,0z"/></g><text class="st3"><tspan x="29" y="21">Day01-15</tspan><tspan x="10" y="39">Python语言基础</tspan></text></g><g transform="translate(1138,800.23)"><g id="shape108"><path stroke="#6d6271" fill="none" d="M0,22L66,22"/></g><text class="st1"><tspan x="5" y="17">Flask入门</tspan></text></g><g transform="translate(1136,1232.23)"><g id="shape109"><path stroke="#6d6271" fill="none" d="M0,22L120,22"/></g><text class="st1"><tspan x="5" y="17">网络爬虫和相关工具</tspan></text></g><g transform="translate(1136,1312.23)"><g id="shape110"><path stroke="#6d6271" fill="none" d="M0,22L60,22"/></g><text class="st1"><tspan x="5" y="17">存储数据</tspan></text></g><g transform="translate(558,2206.73)"><g id="shape111"><path stroke="#6d6271" fill="none" d="M0,22L122,22"/></g><text class="st1"><tspan x="5" y="17">关系型数据库MySQL</tspan></text></g><g transform="translate(568,2246.73)"><g id="shape112"><path stroke="#6d6271" fill="none" d="M0,22L112,22"/></g><text class="st1"><tspan x="5" y="17">NoSQL数据库入门</tspan></text></g><g transform="translate(512,1844.73)"><g id="shape113"><path stroke="#6d6271" fill="none" d="M0,22L162,22"/></g><text class="st1"><tspan x="5" y="17">操作系统发展史和Linux概述</tspan></text></g><g transform="translate(584,1884.73)"><g id="shape114"><path stroke="#6d6271" fill="none" d="M0,22L90,22"/></g><text class="st1"><tspan x="5" y="17">Linux基础命令</tspan></text></g><g transform="translate(560,1924.73)"><g id="shape115"><path stroke="#6d6271" fill="none" d="M0,22L114,22"/></g><text class="st1"><tspan x="5" y="17">Linux中的实用程序</tspan></text></g><g transform="translate(572,1964.73)"><g id="shape116"><path stroke="#6d6271" fill="none" d="M0,22L102,22"/></g><text class="st1"><tspan x="5" y="17">Linux的文件系统</tspan></text></g><g transform="translate(568,2004.73)"><g id="shape117"><path stroke="#6d6271" fill="none" d="M0,22L106,22"/></g><text class="st1"><tspan x="5" y="17">Vim编辑器的应用</tspan></text></g><g transform="translate(552,1562.73)"><g id="shape118"><path stroke="#6d6271" fill="none" d="M0,22L152,22"/></g><text class="st1"><tspan x="5" y="17">用HTML标签承载页面内容</tspan></text></g><g transform="translate(606,1602.73)"><g id="shape119"><path stroke="#6d6271" fill="none" d="M0,22L98,22"/></g><text class="st1"><tspan x="5" y="17">用CSS渲染页面</tspan></text></g><g transform="translate(528,1642.73)"><g id="shape120"><path stroke="#6d6271" fill="none" d="M0,22L176,22"/></g><text class="st1"><tspan x="5" y="17">用JavaScript处理页面交互行为</tspan></text></g><g transform="translate(606,784.73)"><g id="shape121"><path stroke="#6d6271" fill="none" d="M0,22L84,22"/></g><text class="st1"><tspan x="5" y="17">常用数据结构</tspan></text></g><g transform="translate(582,894.73)"><g id="shape122"><path stroke="#6d6271" fill="none" d="M0,22L108,22"/></g><text class="st1"><tspan x="5" y="17">函数的高级用法器</tspan></text></g><g transform="translate(582,1128.73)"><g id="shape123"><path stroke="#6d6271" fill="none" d="M0,22L108,22"/></g><text class="st1"><tspan x="5" y="17">面向对象高级知识</tspan></text></g><g transform="translate(578,166.73)"><g id="shape124"><path stroke="#6d6271" fill="none" d="M0,22L112,22"/></g><text class="st1"><tspan x="5" y="17">Day01:初识Python</tspan></text></g><g transform="translate(592,206.73)"><g id="shape125"><path stroke="#6d6271" fill="none" d="M0,22L98,22"/></g><text class="st1"><tspan x="5" y="17">Day02:语言元素</tspan></text></g><g transform="translate(592,246.73)"><g id="shape126"><path stroke="#6d6271" fill="none" d="M0,22L98,22"/></g><text class="st1"><tspan x="5" y="17">Day03:分支结构</tspan></text></g><g transform="translate(596,286.73)"><g id="shape127"><path stroke="#6d6271" fill="none" d="M0,22L94,22"/></g><text class="st1"><tspan x="5" y="17">Day4: 循环结构</tspan></text></g><g transform="translate(584,326.73)"><g id="shape128"><path stroke="#6d6271" fill="none" d="M0,22L106,22"/></g><text class="st1"><tspan x="5" y="17">Day5: 总结和练习</tspan></text></g><g transform="translate(1152,1014.23)"><g id="shape129"><path stroke="#6d6271" fill="none" d="M0,22L60,22"/></g><text class="st1"><tspan x="5" y="17">预备知识</tspan></text></g><g transform="translate(548,366.73)"><g id="shape130"><path stroke="#6d6271" fill="none" d="M0,22L142,22"/></g><text class="st1"><tspan x="5" y="17">Day6: 函数和模块的作用</tspan></text></g><g transform="translate(522,406.73)"><g id="shape131"><path stroke="#6d6271" fill="none" d="M0,18L168,18"/></g><text class="st4"><tspan x="5" y="14">Day7: 字符串和常用数据结构</tspan></text></g><g transform="translate(546,442.73)"><g id="shape132"><path stroke="#6d6271" fill="none" d="M0,18L144,18"/></g><text class="st4"><tspan x="5" y="14">Day8: 面向对象编程基础</tspan></text></g><g transform="translate(570,478.73)"><g id="shape133"><path stroke="#6d6271" fill="none" d="M0,18L120,18"/></g><text class="st4"><tspan x="5" y="14">Day9: 面向对象进阶</tspan></text></g><g transform="translate(504,514.73)"><g id="shape134"><path stroke="#6d6271" fill="none" d="M0,18L186,18"/></g><text class="st4"><tspan x="5" y="14">Day10: 图形用户界面和游戏开发</tspan></text></g><g transform="translate(576,550.73)"><g id="shape135"><path stroke="#6d6271" fill="none" d="M0,18L114,18"/></g><text class="st4"><tspan x="5" y="14">Day11: 文件和异常</tspan></text></g><g transform="translate(528,586.73)"><g id="shape136"><path stroke="#6d6271" fill="none" d="M0,18L162,18"/></g><text class="st4"><tspan x="5" y="14">Day: 12字符串和正则表达式</tspan></text></g><g transform="translate(576,622.73)"><g id="shape137"><path stroke="#6d6271" fill="none" d="M0,18L114,18"/></g><text class="st4"><tspan x="5" y="14">Day13: 进程和线程</tspan></text></g><g transform="translate(552,658.73)"><g id="shape138"><path stroke="#6d6271" fill="none" d="M0,18L138,18"/></g><text class="st4"><tspan x="5" y="14">Day14-A: 网络编程入门</tspan></text></g><g transform="translate(552,694.73)"><g id="shape139"><path stroke="#6d6271" fill="none" d="M0,18L138,18"/></g><text class="st4"><tspan x="5" y="14">Day14-B: 网络应用开发</tspan></text></g><g transform="translate(552,730.73)"><g id="shape140"><path stroke="#6d6271" fill="none" d="M0,18L138,18"/></g><text class="st4"><tspan x="5" y="14">Day15: 图像和文档处理</tspan></text></g><path id="shape141" stroke="#6d6271" fill="none" transform="translate(1178,1883.23)" d="M0,0L11.2,0L11.2,-235C11.2,-239.8,14.4,-243,19.2,-243L28,-243"/><path id="shape142" stroke="#6d6271" fill="none" transform="translate(1178,1883.23)" d="M0,0L11.2,0L11.2,-199C11.2,-203.8,14.4,-207,19.2,-207L28,-207"/><path id="shape143" stroke="#6d6271" fill="none" transform="translate(1178,1883.23)" d="M0,0L11.2,0L11.2,-163C11.2,-167.8,14.4,-171,19.2,-171L28,-171"/><path id="shape144" stroke="#6d6271" fill="none" transform="translate(1178,1883.23)" d="M0,0L11.2,0L11.2,-127C11.2,-131.8,14.4,-135,19.2,-135L28,-135"/><path id="shape145" stroke="#6d6271" fill="none" transform="translate(1178,1883.23)" d="M0,0L11.2,0L11.2,-91C11.2,-95.8,14.4,-99,19.2,-99L28,-99"/><path id="shape146" stroke="#6d6271" fill="none" transform="translate(1178,1883.23)" d="M0,0L11.2,0L11.2,-55C11.2,-59.8,14.4,-63,19.2,-63L28,-63"/><path id="shape147" stroke="#6d6271" fill="none" transform="translate(1178,1883.23)" d="M0,0L11.2,0L11.2,-19C11.2,-23.8,14.4,-27,19.2,-27L28,-27"/><path id="shape148" stroke="#6d6271" fill="none" transform="translate(1178,1883.23)" d="M0,0L11.2,0L11.2,2C11.2,6.2,14,9,18.2,9L28,9"/><path id="shape149" stroke="#6d6271" fill="none" transform="translate(1178,1883.23)" d="M0,0L11.2,0L11.2,37C11.2,41.8,14.4,45,19.2,45L28,45"/><path id="shape150" stroke="#6d6271" fill="none" transform="translate(1178,1883.23)" d="M0,0L11.2,0L11.2,73C11.2,77.8,14.4,81,19.2,81L28,81"/><path id="shape151" stroke="#6d6271" fill="none" transform="translate(1178,1883.23)" d="M0,0L11.2,0L11.2,109C11.2,113.8,14.4,117,19.2,117L28,117"/><path id="shape152" stroke="#6d6271" fill="none" transform="translate(1178,1883.23)" d="M0,0L11.2,0L11.2,145C11.2,149.8,14.4,153,19.2,153L28,153"/><path id="shape153" stroke="#6d6271" fill="none" transform="translate(1178,1883.23)" d="M0,0L11.2,0L11.2,181C11.2,185.8,14.4,189,19.2,189L28,189"/><path id="shape154" stroke="#6d6271" fill="none" transform="translate(1178,1883.23)" d="M0,0L11.2,0L11.2,217C11.2,221.8,14.4,225,19.2,225L28,225"/><path id="shape155" stroke="#6d6271" fill="none" transform="translate(1178,1883.23)" d="M0,0L11.2,0L11.2,253C11.2,257.8,14.4,261,19.2,261L28,261"/><g transform="translate(1036,1859.23)"><g id="shape156"><path fill="#f9ca31" stroke="#f9ca31" d="M8.6,0L133.4,0C138.1,0,142,3.9,142,8.6L142,39.4C142,44.1,138.1,48,133.4,48L8.6,48C3.9,48,0,44.1,0,39.4L0,8.6C0,3.9,3.9,0,8.6,0z"/></g><text class="st5"><tspan x="45" y="21">Day76-90</tspan><tspan x="14" y="36">数据处理和机器学习</tspan></text></g><g transform="translate(1206,1622.23)"><g id="shape157"><path stroke="#6d6271" fill="none" d="M0,18L126,18"/></g><text class="st4"><tspan x="5" y="14">Day76: 机器学习基础</tspan></text></g><g transform="translate(1206,1658.23)"><g id="shape158"><path stroke="#6d6271" fill="none" d="M0,18L114,18"/></g><text class="st4"><tspan x="5" y="14">Day77: Pandas应用</tspan></text></g><g transform="translate(1206,1694.23)"><g id="shape159"><path stroke="#6d6271" fill="none" d="M0,18L162,18"/></g><text class="st4"><tspan x="5" y="14">Day78: Numpy和Scipy的应用</tspan></text></g><g transform="translate(1206,1730.23)"><g id="shape160"><path stroke="#6d6271" fill="none" d="M0,18L150,18"/></g><text class="st4"><tspan x="5" y="14">Day79: Matplotlib的应用</tspan></text></g><g transform="translate(1206,1766.23)"><g id="shape161"><path stroke="#6d6271" fill="none" d="M0,18L162,18"/></g><text class="st4"><tspan x="5" y="14">Day80: k最邻近（KNN）分类</tspan></text></g><g transform="translate(1206,1802.23)"><g id="shape162"><path stroke="#6d6271" fill="none" d="M0,18L90,18"/></g><text class="st4"><tspan x="5" y="14">Day81: 决策树</tspan></text></g><g transform="translate(1206,1838.23)"><g id="shape163"><path stroke="#6d6271" fill="none" d="M0,18L114,18"/></g><text class="st4"><tspan x="5" y="14">Day82: 贝叶斯分类</tspan></text></g><g transform="translate(1206,1874.23)"><g id="shape164"><path stroke="#6d6271" fill="none" d="M0,18L150,18"/></g><text class="st4"><tspan x="5" y="14">Day83:支持向量机（SVM）</tspan></text></g><g transform="translate(1206,1910.23)"><g id="shape165"><path stroke="#6d6271" fill="none" d="M0,18L114,18"/></g><text class="st4"><tspan x="5" y="14">Day84: K-均值分类</tspan></text></g><g transform="translate(1206,1946.23)"><g id="shape166"><path stroke="#6d6271" fill="none" d="M0,18L102,18"/></g><text class="st4"><tspan x="5" y="14">Day85: 回归分析</tspan></text></g><g transform="translate(1206,1982.23)"><g id="shape167"><path stroke="#6d6271" fill="none" d="M0,18L138,18"/></g><text class="st4"><tspan x="5" y="14">Day86: 大数据分析入门</tspan></text></g><g transform="translate(1206,2018.23)"><g id="shape168"><path stroke="#6d6271" fill="none" d="M0,18L138,18"/></g><text class="st4"><tspan x="5" y="14">Day87: 大数据分析进阶</tspan></text></g><g transform="translate(1206,2054.23)"><g id="shape169"><path stroke="#6d6271" fill="none" d="M0,18L138,18"/></g><text class="st4"><tspan x="5" y="14">Day88: Tensorflow入门</tspan></text></g><g transform="translate(1206,2090.23)"><g id="shape170"><path stroke="#6d6271" fill="none" d="M0,18L138,18"/></g><text class="st4"><tspan x="5" y="14">Day89: Tenserflow实践</tspan></text></g><g transform="translate(1206,2126.23)"><g id="shape171"><path stroke="#6d6271" fill="none" d="M0,18L102,18"/></g><text class="st4"><tspan x="5" y="14">Day90: 推荐系统</tspan></text></g><g transform="translate(1036,2180.23)"><g id="shape172"><path fill="#deb887" stroke="#deb887" d="M8.6,0L93.4,0C98.1,0,102,3.9,102,8.6L102,39.4C102,44.1,98.1,48,93.4,48L8.6,48C3.9,48,0,44.1,0,39.4L0,8.6C0,3.9,3.9,0,8.6,0z"/></g><text class="st5"><tspan x="22" y="21">Day91-100</tspan><tspan x="14" y="36">团队项目开发</tspan></text></g><g transform="translate(594,1310.73)"><g id="shape173"><path stroke="#6d6271" fill="none" d="M0,18L96,18"/></g><text class="st4"><tspan x="5" y="14">迭代器和生成器</tspan></text></g><g transform="translate(594,1436.73)"><g id="shape174"><path stroke="#6d6271" fill="none" d="M0,18L96,18"/></g><text class="st4"><tspan x="5" y="14">并发和异步编程</tspan></text></g><g transform="translate(518,1364.73)"><g id="shape175"><path stroke="#6d6271" fill="none" d="M0,18L48,18"/></g><text class="st4"><tspan x="5" y="14">多线程</tspan></text></g><g transform="translate(518,1400.73)"><g id="shape176"><path stroke="#6d6271" fill="none" d="M0,18L48,18"/></g><text class="st4"><tspan x="5" y="14">多进程</tspan></text></g><g transform="translate(518,1436.73)"><g id="shape177"><path stroke="#6d6271" fill="none" d="M0,18L48,18"/></g><text class="st4"><tspan x="5" y="14">异步IO</tspan></text></g><g transform="translate(524,1472.73)"><g id="shape178"><path stroke="#6d6271" fill="none" d="M0,18L42,18"/></g><text class="st4"><tspan x="5" y="14">async</tspan></text></g><g transform="translate(524,1508.73)"><g id="shape179"><path stroke="#6d6271" fill="none" d="M0,18L42,18"/></g><text class="st4"><tspan x="5" y="14">await</tspan></text></g><g transform="translate(482,1292.73)"><g id="shape180"><path stroke="#6d6271" fill="none" d="M0,18L84,18"/></g><text class="st4"><tspan x="5" y="14">相关魔术方法</tspan></text></g><g transform="translate(458,1328.73)"><g id="shape181"><path stroke="#6d6271" fill="none" d="M0,18L108,18"/></g><text class="st4"><tspan x="5" y="14">创建生成器的方法</tspan></text></g><g transform="translate(470,1004.73)"><g id="shape182"><path stroke="#6d6271" fill="none" d="M0,18L84,18"/></g><text class="st4"><tspan x="5" y="14">“三大支柱”</tspan></text></g><g transform="translate(446,1040.73)"><g id="shape183"><path stroke="#6d6271" fill="none" d="M0,18L108,18"/></g><text class="st4"><tspan x="5" y="14">类与类之间的关系</tspan></text></g><g transform="translate(494,1076.73)"><g id="shape184"><path stroke="#6d6271" fill="none" d="M0,18L60,18"/></g><text class="st4"><tspan x="5" y="14">垃圾回收</tspan></text></g><g transform="translate(458,1112.73)"><g id="shape185"><path stroke="#6d6271" fill="none" d="M0,18L96,18"/></g><text class="st4"><tspan x="5" y="14">魔术属性和方法</tspan></text></g><g transform="translate(516,1148.73)"><g id="shape186"><path stroke="#6d6271" fill="none" d="M0,18L38,18"/></g><text class="st4"><tspan x="5" y="14">混入</tspan></text></g><g transform="translate(516,1184.73)"><g id="shape187"><path stroke="#6d6271" fill="none" d="M0,18L38,18"/></g><text class="st4"><tspan x="5" y="14">元类</tspan></text></g><g transform="translate(446,1220.73)"><g id="shape188"><path stroke="#6d6271" fill="none" d="M0,18L108,18"/></g><text class="st4"><tspan x="5" y="14">面向对象设计原则</tspan></text></g><g transform="translate(476,1256.73)"><g id="shape189"><path stroke="#6d6271" fill="none" d="M0,18L78,18"/></g><text class="st4"><tspan x="5" y="14">GoF设计模式</tspan></text></g><g transform="translate(470,824.73)"><g id="shape190"><path stroke="#6d6271" fill="none" d="M0,18L84,18"/></g><text class="st4"><tspan x="5" y="14">“一等公民”</tspan></text></g><g transform="translate(494,860.73)"><g id="shape191"><path stroke="#6d6271" fill="none" d="M0,18L60,18"/></g><text class="st4"><tspan x="5" y="14">高阶函数</tspan></text></g><g transform="translate(482,896.73)"><g id="shape192"><path stroke="#6d6271" fill="none" d="M0,18L72,18"/></g><text class="st4"><tspan x="5" y="14">Lambda函数</tspan></text></g><g transform="translate(470,932.73)"><g id="shape193"><path stroke="#6d6271" fill="none" d="M0,18L84,18"/></g><text class="st4"><tspan x="5" y="14">作用域和闭包</tspan></text></g><g transform="translate(516,968.73)"><g id="shape194"><path stroke="#6d6271" fill="none" d="M0,18L38,18"/></g><text class="st4"><tspan x="5" y="14">装饰</tspan></text></g><g transform="translate(596,1682.73)"><g id="shape195"><path stroke="#6d6271" fill="none" d="M0,18L108,18"/></g><text class="st4"><tspan x="5" y="14">jQuery入门和提高</tspan></text></g><g transform="translate(632,1718.73)"><g id="shape196"><path stroke="#6d6271" fill="none" d="M0,18L72,18"/></g><text class="st4"><tspan x="5" y="14">Vue.js入门</tspan></text></g><g transform="translate(614,1754.73)"><g id="shape197"><path stroke="#6d6271" fill="none" d="M0,18L90,18"/></g><text class="st4"><tspan x="5" y="14">Element的使用</tspan></text></g><g transform="translate(602,1790.73)"><g id="shape198"><path stroke="#6d6271" fill="none" d="M0,18L102,18"/></g><text class="st4"><tspan x="5" y="14">Bootstrap的使用</tspan></text></g><g transform="translate(548,2044.73)"><g id="shape199"><path stroke="#6d6271" fill="none" d="M0,18L126,18"/></g><text class="st4"><tspan x="5" y="14">环境变量和Shell编程</tspan></text></g><g transform="translate(530,2080.73)"><g id="shape200"><path stroke="#6d6271" fill="none" d="M0,18L144,18"/></g><text class="st4"><tspan x="5" y="14">软件的安装和服务的配置</tspan></text></g><g transform="translate(578,2116.73)"><g id="shape201"><path stroke="#6d6271" fill="none" d="M0,18L96,18"/></g><text class="st4"><tspan x="5" y="14">网络访问和管理</tspan></text></g><g transform="translate(590,2152.73)"><g id="shape202"><path stroke="#6d6271" fill="none" d="M0,18L84,18"/></g><text class="st4"><tspan x="5" y="14">其它相关内容</tspan></text></g><g transform="translate(1138,960.23)"><g id="shape203"><path stroke="#6d6271" fill="none" d="M0,18L60,18"/></g><text class="st4"><tspan x="5" y="14">项目实战</tspan></text></g><g transform="translate(1136,1352.23)"><g id="shape204"><path stroke="#6d6271" fill="none" d="M0,18L60,18"/></g><text class="st4"><tspan x="5" y="14">并发下载</tspan></text></g><g transform="translate(1136,1388.23)"><g id="shape205"><path stroke="#6d6271" fill="none" d="M0,18L84,18"/></g><text class="st4"><tspan x="5" y="14">解析动态内容</tspan></text></g><g transform="translate(1136,1424.23)"><g id="shape206"><path stroke="#6d6271" fill="none" d="M0,18L132,18"/></g><text class="st4"><tspan x="5" y="14">表单交互和验证码处理</tspan></text></g><g transform="translate(1136,1460.23)"><g id="shape207"><path stroke="#6d6271" fill="none" d="M0,18L72,18"/></g><text class="st4"><tspan x="5" y="14">Scrapy入门</tspan></text></g><g transform="translate(1136,1496.23)"><g id="shape208"><path stroke="#6d6271" fill="none" d="M0,18L96,18"/></g><text class="st4"><tspan x="5" y="14">Scrapy高级应用</tspan></text></g><g transform="translate(1136,1532.23)"><g id="shape209"><path stroke="#6d6271" fill="none" d="M0,18L108,18"/></g><text class="st4"><tspan x="5" y="14">Scrapy分布式实现</tspan></text></g><g transform="translate(1136,1568.23)"><g id="shape210"><path stroke="#6d6271" fill="none" d="M0,18L84,18"/></g><text class="st4"><tspan x="5" y="14">爬虫项目实践</tspan></text></g><path id="shape211" stroke="#6d6271" fill="none" transform="translate(1118,493.23)" d="M0,0L11.2,0L11.2,-45C11.2,-49.8,14.4,-53,19.2,-53L28,-53"/><path id="shape212" stroke="#6d6271" fill="none" transform="translate(1118,493.23)" d="M0,0L11.2,0L11.2,-9C11.2,-13.8,14.4,-17,19.2,-17L28,-17"/><path id="shape213" stroke="#6d6271" fill="none" transform="translate(1118,493.23)" d="M0,0L11.2,0L11.2,11C11.2,15.8,14.4,19,19.2,19L28,19"/><path id="shape214" stroke="#6d6271" fill="none" transform="translate(1118,493.23)" d="M0,0L11.2,0L11.2,47C11.2,51.8,14.4,55,19.2,55L28,55"/><path id="shape215" stroke="#6d6271" fill="none" transform="translate(1118,493.23)" d="M0,0L11.2,0L11.2,83C11.2,87.8,14.4,91,19.2,91L28,91"/><path id="shape216" stroke="#6d6271" fill="none" transform="translate(1118,493.23)" d="M0,0L11.2,0L11.2,119C11.2,123.8,14.4,127,19.2,127L28,127"/><path id="shape217" stroke="#6d6271" fill="none" transform="translate(1118,493.23)" d="M0,0L11.2,0L11.2,155C11.2,159.8,14.4,163,19.2,163L28,163"/><path id="shape218" stroke="#6d6271" fill="none" transform="translate(1118,493.23)" d="M0,0L11.2,0L11.2,191C11.2,195.8,14.4,199,19.2,199L28,199"/><path id="shape219" stroke="#6d6271" fill="none" transform="translate(1118,493.23)" d="M0,0L11.2,0L11.2,227C11.2,231.8,14.4,235,19.2,235L28,235"/><path id="shape220" stroke="#6d6271" fill="none" transform="translate(1118,493.23)" d="M0,0L11.2,0L11.2,263C11.2,267.8,14.4,271,19.2,271L28,271"/><path id="shape221" stroke="#6d6271" fill="none" transform="translate(1118,493.23)" d="M0,0L11.2,0L11.2,-241C11.2,-245.8,14.4,-249,19.2,-249L28,-249"/><path id="shape222" stroke="#6d6271" fill="none" transform="translate(1118,493.23)" d="M0,0L11.2,0L11.2,-201C11.2,-205.8,14.4,-209,19.2,-209L28,-209"/><path id="shape223" stroke="#6d6271" fill="none" transform="translate(1118,493.23)" d="M0,0L11.2,0L11.2,-161C11.2,-165.8,14.4,-169,19.2,-169L28,-169"/><path id="shape224" stroke="#6d6271" fill="none" transform="translate(1118,493.23)" d="M0,0L11.2,0L11.2,-121C11.2,-125.8,14.4,-129,19.2,-129L28,-129"/><path id="shape225" stroke="#6d6271" fill="none" transform="translate(1118,493.23)" d="M0,0L11.2,0L11.2,-81C11.2,-85.8,14.4,-89,19.2,-89L28,-89"/><g transform="translate(1036,467.23)"><g id="shape226"><path fill="#e35020" stroke="#e35020" d="M9.4,0L72.6,0C77.8,0,82,4.2,82,9.4L82,42.6C82,47.8,77.8,52,72.6,52L9.4,52C4.2,52,0,47.8,0,42.6L0,9.4C0,4.2,4.2,0,9.4,0z"/></g><text class="st5"><tspan x="15" y="23">Day41-55</tspan><tspan x="9" y="38">实战Django</tspan></text></g><g transform="translate(1146,222.23)"><g id="shape227"><path stroke="#6d6271" fill="none" d="M0,22L60,22"/></g><text class="st4"><tspan x="5" y="16.5">快速上手</tspan></text></g><g transform="translate(1146,262.23)"><g id="shape228"><path stroke="#6d6271" fill="none" d="M0,22L60,22"/></g><text class="st4"><tspan x="5" y="16.5">深入模型</tspan></text></g><g transform="translate(1146,302.23)"><g id="shape229"><path stroke="#6d6271" fill="none" d="M0,22L118,22"/></g><text class="st4"><tspan x="4" y="16.5">静态资源和Ajax请求</tspan></text></g><g transform="translate(1146,342.23)"><g id="shape230"><path stroke="#6d6271" fill="none" d="M0,22L60,22"/></g><text class="st4"><tspan x="5" y="16.5">表单应用</tspan></text></g><g transform="translate(1146,382.23)"><g id="shape231"><path stroke="#6d6271" fill="none" d="M0,22L110,22"/></g><text class="st4"><tspan x="8.5" y="16.5">Cookie和Session</tspan></text></g><g transform="translate(1146,422.23)"><g id="shape232"><path stroke="#6d6271" fill="none" d="M0,18L84,18"/></g><text class="st4"><tspan x="5" y="14">中间件的应用</tspan></text></g><g transform="translate(1146,458.23)"><g id="shape233"><path stroke="#6d6271" fill="none" d="M0,18L72,18"/></g><text class="st4"><tspan x="5" y="14">日志和缓存</tspan></text></g><g transform="translate(1146,494.23)"><g id="shape234"><path stroke="#6d6271" fill="none" d="M0,18L132,18"/></g><text class="st4"><tspan x="5" y="14">文件上传和富文本编辑</tspan></text></g><g transform="translate(1146,530.23)"><g id="shape235"><path stroke="#6d6271" fill="none" d="M0,18L96,18"/></g><text class="st4"><tspan x="5" y="14">文件下载和报表</tspan></text></g><g transform="translate(1146,566.23)"><g id="shape236"><path stroke="#6d6271" fill="none" d="M0,18L108,18"/></g><text class="st4"><tspan x="5" y="14">RESTful和DRF入门</tspan></text></g><g transform="translate(1146,602.23)"><g id="shape237"><path stroke="#6d6271" fill="none" d="M0,18L102,18"/></g><text class="st4"><tspan x="5" y="14">RESTfu和DRF进阶</tspan></text></g><g transform="translate(1146,638.23)"><g id="shape238"><path stroke="#6d6271" fill="none" d="M0,18L60,18"/></g><text class="st4"><tspan x="5" y="14">使用缓存</tspan></text></g><g transform="translate(1146,674.23)"><g id="shape239"><path stroke="#6d6271" fill="none" d="M0,18L72,18"/></g><text class="st4"><tspan x="5" y="14">短信和邮件</tspan></text></g><g transform="translate(1146,710.23)"><g id="shape240"><path stroke="#6d6271" fill="none" d="M0,18L120,18"/></g><text class="st4"><tspan x="5" y="14">异步任务和定时任务</tspan></text></g><g transform="translate(1146,746.23)"><g id="shape241"><path stroke="#6d6271" fill="none" d="M0,18L120,18"/></g><text class="st4"><tspan x="5" y="14">单元测试和项目上线</tspan></text></g></g></svg>